# xmcd
#
# Track frame offsets:
#	150
#	23130
#	42437
#	53635
#	88665
#	112110
#	139792
#	150200
#	196837
#	223299
#	247055
#	269901
#
# Disc length: 3901 seconds
#
# Revision: 1
# Processed by: cddbd v1.5PL3 Copyright (c) Steve Scherf et al.
# Submitted via: CDex 1.50Beta5
#
DISCID=b00f3b0c
DTITLE=Maju - Maju-3
DYEAR=1900
DGENRE=
TTITLE0=Resonance Of Forms
TTITLE1=Uncarved
TTITLE2=Chain
TTITLE3=Solitary Wave
TTITLE4=Catalysts
TTITLE5=Acausal Links
TTITLE6=64 (Eight Divination Signs)
TTITLE7=Velocity
TTITLE8=Chabashira
TTITLE9=Helix
TTITLE10=Distortion
TTITLE11=Achromatic
EXTD=
EXTT0=
EXTT1=
EXTT2=
EXTT3=
EXTT4=
EXTT5=
EXTT6=
EXTT7=
EXTT8=
EXTT9=
EXTT10=
EXTT11=
PLAYORDER=
